<?xml version="1.0" encoding="UTF-8"?><svg id="a" xmlns="http://www.w3.org/2000/svg" xmlns:xlink="http://www.w3.org/1999/xlink" viewBox="0 0 685.44 136.82"><defs><style>.i{fill:none;}.j,.k{fill:#fff;}.k{font-family:OpenSans-Light, Open Sans;font-size:97px;}.l{clip-path:url(#c);}</style><clipPath id="c"><rect class="i" width="121" height="112"/></clipPath></defs><g id="b" transform="translate(-378.654 8.63)"><g class="l"><g id="d" transform="translate(378.157 -8.63)"><path id="e" class="j" d="M63.18,100.26c.04,1.91-1.47,3.49-3.38,3.53-1.91,.04-3.49-1.47-3.53-3.38-.04-1.91,1.47-3.49,3.38-3.53,.03,0,.05,0,.08,0,1.89-.02,3.43,1.49,3.46,3.38"/><path id="f" class="j" d="M7.54,27c-.02,1.89-1.57,3.4-3.45,3.38-1.87,.03-3.4-1.45-3.44-3.32s1.45-3.4,3.32-3.44c.04,0,.08,0,.12,0,1.89-.02,3.43,1.49,3.45,3.38"/><path id="g" class="j" d="M74.64,111.64h-29.46V28.42H4.26v-3.2H48.46V108.43h22.91V25.22h45.83V15.62h-44.19v-3.2h47.47V28.42h-45.83V111.64Z"/><path id="h" class="j" d="M61.37,100.26h-3.27l.18-84.64H-.65V-.39H118.84V2.81H2.62V12.41H61.55l-.19,87.84Z"/></g></g></g><text class="k" transform="translate(82.04 110.72)"><tspan x="0" y="0">ECHHUB SYD</tspan></text></svg>