<?xml version="1.0" encoding="UTF-8"?><svg id="a" xmlns="http://www.w3.org/2000/svg" xmlns:xlink="http://www.w3.org/1999/xlink" viewBox="0 0 658.99 114.06"><defs><style>.i{fill:none;}.j{fill:#63c;}.k{clip-path:url(#c);}</style><clipPath id="c"><rect class="i" y=".75" width="120.88" height="111.96"/></clipPath></defs><g><path class="j" d="M131.12,113.11h-37.84V43.87h37.84v4.45h-33.01v26.19h31.17v4.45h-31.17v29.7h33.01v4.45Z"/><path class="j" d="M176.36,47.23c-8.68,0-15.52,2.78-20.51,8.34-4.99,5.56-7.48,13.17-7.48,22.83s2.35,17.56,7.06,23.02c4.7,5.46,11.43,8.19,20.18,8.19,5.81,0,11.15-.74,16.01-2.23v4.26c-4.58,1.61-10.29,2.42-17.15,2.42-9.73,0-17.38-3.14-22.97-9.43-5.59-6.28-8.38-15.06-8.38-26.33,0-7.04,1.33-13.25,4-18.61,2.67-5.37,6.5-9.51,11.51-12.43,5-2.92,10.82-4.38,17.45-4.38s12.8,1.26,18.14,3.79l-1.94,4.36c-5.05-2.53-10.36-3.79-15.91-3.79Z"/><path class="j" d="M257.21,113.11h-4.88v-34.05h-40.45v34.05h-4.83V43.87h4.83v30.74h40.45v-30.74h4.88V113.11Z"/><path class="j" d="M326.97,113.11h-4.88v-34.05h-40.45v34.05h-4.83V43.87h4.83v30.74h40.45v-30.74h4.88V113.11Z"/><path class="j" d="M397.5,43.87v44.81c0,7.96-2.31,14.18-6.92,18.66-4.61,4.48-11.04,6.73-19.28,6.73s-14.28-2.25-18.78-6.75c-4.5-4.5-6.75-10.78-6.75-18.83V43.87h4.88v44.81c0,6.66,1.85,11.85,5.54,15.56,3.69,3.71,8.92,5.57,15.68,5.57s11.71-1.82,15.35-5.47c3.63-3.65,5.45-8.71,5.45-15.18V43.87h4.83Z"/><path class="j" d="M416.35,43.87h18.99c8.56,0,14.84,1.45,18.85,4.36,4.01,2.91,6.01,7.29,6.01,13.17,0,4.01-1.22,7.35-3.67,10.02-2.45,2.67-6.02,4.38-10.73,5.14v.28c5.53,.82,9.59,2.57,12.2,5.23,2.61,2.67,3.91,6.39,3.91,11.15,0,6.38-2.12,11.29-6.35,14.73-4.23,3.44-10.23,5.16-18,5.16h-21.22V43.87Zm4.83,30.83h15.25c6.5,0,11.23-1.08,14.18-3.24,2.95-2.16,4.43-5.55,4.43-10.16s-1.67-7.96-5-10.04-8.3-3.13-14.9-3.13h-13.97v26.57Zm0,4.26v29.89h16.29c12.82,0,19.23-5.21,19.23-15.63,0-9.5-6.76-14.26-20.27-14.26h-15.25Z"/><path class="j" d="M540.58,95.26c0,5.78-2.12,10.36-6.37,13.73-4.25,3.38-9.89,5.07-16.93,5.07-8.46,0-14.95-.93-19.47-2.79v-4.83c4.99,2.12,11.35,3.17,19.09,3.17,5.68,0,10.19-1.3,13.52-3.91,3.33-2.61,5-6.02,5-10.25,0-2.62-.55-4.79-1.66-6.51-1.11-1.72-2.91-3.29-5.4-4.71-2.5-1.42-6.16-2.95-10.99-4.59-7.07-2.43-11.96-5.06-14.66-7.89-2.7-2.83-4.05-6.59-4.05-11.3,0-5.18,2.03-9.4,6.09-12.67,4.06-3.27,9.27-4.9,15.65-4.9s12.61,1.23,18.33,3.69l-1.75,4.17c-5.75-2.4-11.24-3.6-16.48-3.6s-9.19,1.18-12.22,3.55-4.55,5.59-4.55,9.66c0,2.56,.47,4.66,1.4,6.3,.93,1.64,2.45,3.12,4.57,4.43,2.12,1.31,5.75,2.88,10.89,4.71,5.4,1.86,9.46,3.67,12.17,5.42,2.72,1.75,4.7,3.74,5.94,5.97,1.25,2.23,1.87,4.92,1.87,8.08Z"/><path class="j" d="M571.13,81.76l20.27-37.89h5.21l-23.07,42.49v26.76h-4.97v-26.38l-23.16-42.86h5.54l20.18,37.89Z"/><path class="j" d="M658.99,77.83c0,11.62-3.05,20.41-9.14,26.36-6.09,5.95-15.05,8.93-26.86,8.93h-16.58V43.87h18.71c11.05,0,19.46,2.89,25.22,8.67s8.64,14.21,8.64,25.29Zm-5.26,.19c0-9.92-2.52-17.37-7.55-22.38-5.04-5-12.43-7.51-22.19-7.51h-12.74v60.72h11.46c20.68,0,31.02-10.28,31.02-30.83Z"/></g><g id="b" transform="translate(-0.038 -0.752)"><g class="k"><g id="d" transform="translate(0.524 0.265)"><g id="e"><path class="j" d="M63.74,101.26c0,1.88-1.54,3.4-3.45,3.4-1.9,0-3.45-1.52-3.45-3.4s1.54-3.4,3.45-3.4h0c1.9,0,3.45,1.52,3.45,3.4"/></g><g id="f"><path class="j" d="M8.23,27.55c0,1.88-1.54,3.4-3.45,3.4s-3.45-1.52-3.45-3.4,1.54-3.4,3.45-3.4h0c1.9,0,3.45,1.52,3.45,3.4"/></g><g id="g"><path class="j" d="M75.17,112.71h-29.39V28.98H4.96v-3.22H49.05V109.49h22.86V25.76h45.71v-9.66h-44.08v-3.22h47.35V28.98h-45.72V112.71Z"/></g><g id="h"><path class="j" d="M61.93,101.26h-3.26l.18-85.16H.07V0H119.25V3.22H3.33V12.88H62.11l-.19,88.38Z"/></g></g></g></g></svg>